<svg width="24" height="24" viewBox="0 0 24 24" fill="none" xmlns="http://www.w3.org/2000/svg">
<g clip-path="url(#clip0_2_10)">
<path opacity="0.3" d="M18 8H16C15.4477 8 15 7.55228 15 7C15 6.44772 15.4477 6 16 6H18V4C18 3.44772 18.4477 3 19 3C19.5523 3 20 3.44772 20 4V6H22C22.5523 6 23 6.44772 23 7C23 7.55228 22.5523 8 22 8H20V10C20 10.5523 19.5523 11 19 11C18.4477 11 18 10.5523 18 10V8ZM9 11C6.79086 11 5 9.20914 5 7C5 4.79086 6.79086 3 9 3C11.2091 3 13 4.79086 13 7C13 9.20914 11.2091 11 9 11Z" fill="white"/>
<path d="M3.25451 20.1993C1.5019 20.1992 0.0536355 18.6344 0.886609 17.0924C2.35421 14.3756 5.42847 13 8.98333 13C12.632 13 15.7846 14.3318 17.208 17.1371C17.9895 18.6774 16.5423 20.2 14.8151 20.1999C11.6965 20.1997 7.61837 20.1994 3.25451 20.1993Z" fill="white"/>
</g>
<defs>
<clipPath id="clip0_2_10">
<rect width="24" height="24" fill="white"/>
</clipPath>
</defs>
</svg>
