<svg width="24" height="24" viewBox="0 0 24 24" fill="none" xmlns="http://www.w3.org/2000/svg">
<g clip-path="url(#clip0_2_23)">
<path fill-rule="evenodd" clip-rule="evenodd" d="M16 15.6316V12C16 10.3431 14.6569 9 13 9H6.16183V5.52632C6.16183 4.13107 7.29291 3 8.68815 3H20.4776C21.8729 3 23.0039 4.13107 23.0039 5.52632V13.1053L23.0206 17.7868C23.0216 18.0629 22.7985 18.2876 22.5224 18.2886C22.3892 18.289 22.2613 18.2363 22.1671 18.1421L19.6565 15.6316H16Z" fill="white"/>
<path opacity="0.3" fill-rule="evenodd" clip-rule="evenodd" d="M1.98505 18V13C1.98505 11.8954 2.88048 11 3.98505 11H11.985C13.0896 11 13.985 11.8954 13.985 13V18C13.985 19.1046 13.0896 20 11.985 20H4.10078L2.85692 21.1905C2.65743 21.3815 2.34093 21.3745 2.14999 21.175C2.06092 21.082 2.0112 20.9581 2.0112 20.8293V18.3243C1.99399 18.2187 1.98505 18.1104 1.98505 18ZM6.49999 14C6.22385 14 5.99999 14.2239 5.99999 14.5C5.99999 14.7761 6.22385 15 6.49999 15H11.5C11.7761 15 12 14.7761 12 14.5C12 14.2239 11.7761 14 11.5 14H6.49999ZM9.49999 16C9.22385 16 8.99999 16.2239 8.99999 16.5C8.99999 16.7761 9.22385 17 9.49999 17H11.5C11.7761 17 12 16.7761 12 16.5C12 16.2239 11.7761 16 11.5 16H9.49999Z" fill="white"/>
</g>
<defs>
<clipPath id="clip0_2_23">
<rect width="24" height="24" fill="white"/>
</clipPath>
</defs>
</svg>
