<svg width="24" height="24" viewBox="0 0 24 24" fill="none" xmlns="http://www.w3.org/2000/svg">
<path fill-rule="evenodd" clip-rule="evenodd" d="M18.4998 12C19.3283 12 19.9998 12.6716 19.9998 13.5C19.9998 14.3284 19.3283 15 18.4998 15H5.49985C4.67142 15 3.99985 14.3284 3.99985 13.5C3.99985 12.6716 4.67142 12 5.49985 12L7.55812 6.97553C7.8096 4.71226 9.72264 3 11.9998 3C14.2771 3 16.1901 4.71226 16.4416 6.97553L18.4998 12Z" fill="white"/>
<path opacity="0.3" d="M14 18C14 16.8954 13.1046 16 12 16C10.8954 16 10 16.8954 10 18C10 19.1046 10.8954 20 12 20C13.1046 20 14 19.1046 14 18Z" fill="white"/>
</svg>
